HIERARCHY
ROOT Hips
{
	OFFSET 0.000000 0.000000 0.000000
	CHANNELS 6 Xposition Yposition Zposition Zrotation Yrotation Xrotation 
	JOINT LHipJoint
	{
		OFFSET 0.000000 0.000000 0.000000
		CHANNELS 3 Zrotation Yrotation Xrotation
		JOINT LeftUpLeg
		{
			OFFSET 1.363060 -1.794630 0.839290
			CHANNELS 3 Zrotation Yrotation Xrotation
			JOINT LeftLeg
			{
				OFFSET 2.448110 -6.726130 0.000000
				CHANNELS 3 Zrotation Yrotation Xrotation
				JOINT LeftFoot
				{
					OFFSET 2.562200 -7.039590 0.000000
					CHANNELS 3 Zrotation Yrotation Xrotation
					JOINT LeftToeBase
					{
						OFFSET 0.157640 -0.433110 2.322550
						CHANNELS 3 Zrotation Yrotation Xrotation
						End Site
						{
							OFFSET 0.000000 0.000000 0.000000
						}
					}
				}
			}
		}
	}
	JOINT RHipJoint
	{
		OFFSET 0.000000 0.000000 0.000000
		CHANNELS 3 Zrotation Yrotation Xrotation
		JOINT RightUpLeg
		{
			OFFSET -1.305520 -1.794630 0.839290
			CHANNELS 3 Zrotation Yrotation Xrotation
			JOINT RightLeg
			{
				OFFSET -2.542530 -6.985550 0.000000
				CHANNELS 3 Zrotation Yrotation Xrotation
				JOINT RightFoot
				{
					OFFSET -2.568260 -7.056230 0.000000
					CHANNELS 3 Zrotation Yrotation Xrotation
					JOINT RightToeBase
					{
						OFFSET -0.164730 -0.452590 2.363150
						CHANNELS 3 Zrotation Yrotation Xrotation
						End Site
						{
							OFFSET 0.000000 0.000000 0.000000
						}
					}
				}
			}
		}
	}
}
MOTION
Frames: 33
Frame Time: 0.008333
-11.082046 16.742129 1.604649 -12.629440 80.088896 12.533632 -10.998718 1.546363 -3.212711 -4.356135 4.771000 -7.610609 -1.258840 1.152780 25.535948 0.711990 3.951875 -1.314035 0.388401 -0.000000 -71.867300 8.810537 1.056707 1.199985 2.393526 4.312304 -44.791155 2.759112 -0.803212 12.603308 0.983855 6.108264 10.989604 1.544400 -0.000000 -56.078800
-10.915893 16.723455 1.633217 -16.070274 80.336034 9.215140 -11.150540 1.493724 -3.197218 -3.578298 4.599481 -8.103514 -1.097483 1.295133 27.267740 0.742806 4.089411 -0.698075 0.431700 0.000000 -71.726300 8.681973 0.960283 1.083787 2.980857 4.648962 -45.301701 2.725507 -1.048005 15.137447 0.902849 5.637223 9.979886 1.307700 0.000000 -55.228600
-10.753587 16.711336 1.659437 -19.791922 80.671325 5.567453 -11.301277 1.417514 -3.204081 -2.802194 4.467348 -8.678447 -0.926028 1.440219 29.152304 0.786368 4.301857 -0.028446 0.486700 0.000000 -70.615800 8.557891 0.865690 0.926261 3.620023 4.824260 -45.642620 2.703451 -1.272147 17.497220 0.809134 5.120636 8.781180 1.058600 0.000000 -54.653500
-10.595153 16.705741 1.684181 -23.821441 81.090540 1.566921 -11.453431 1.314811 -3.232844 -2.044015 4.383866 -9.342291 -0.747176 1.583973 31.177712 0.847561 4.631133 0.642568 0.558000 0.000001 -68.435201 8.436135 0.766521 0.737600 4.285482 4.853621 -45.789592 2.694524 -1.468732 19.601975 0.701797 4.553106 7.465582 0.807500 0.000000 -54.361900
-10.440684 16.706359 1.708801 -28.056092 81.581792 -2.682686 -11.605424 1.187898 -3.281358 -1.347918 4.342309 -10.085499 -0.565486 1.722555 33.311349 0.932177 5.134974 1.259964 0.654400 -0.000000 -65.149400 8.318460 0.663446 0.524913 4.934260 4.742613 -45.740127 2.696948 -1.635511 21.413926 0.583798 3.955352 6.100473 0.570700 0.000000 -54.323600
-10.289795 16.712671 1.734143 -32.508229 82.129789 -7.182803 -11.760115 1.038815 -3.345619 -0.730709 4.349571 -10.915906 -0.386210 1.854058 35.528730 1.042695 5.844089 1.762951 0.781001 -0.000000 -60.792701 8.202697 0.555219 0.300275 5.542586 4.517602 -45.505559 2.708958 -1.769805 22.905119 0.457801 3.336570 4.758128 0.356900 -0.000001 -54.470300
-10.142140 16.724067 1.761264 -37.057515 82.714989 -11.805570 -11.913853 0.875577 -3.421589 -0.230497 4.399974 -11.824726 -0.215633 1.977883 37.784890 1.181855 6.790230 2.108640 0.942800 0.000000 -55.546600 8.093195 0.449156 0.071048 6.074354 4.195325 -45.112151 2.725207 -1.872893 24.087472 0.329450 2.724065 3.499147 0.174901 0.000000 -54.721201
-9.997156 16.739882 1.790669 -41.635406 83.317418 -16.469993 -12.062589 0.706152 -3.504739 0.133406 4.491845 -12.808801 -0.059034 2.094615 40.035820 1.350202 7.977936 2.272213 1.138200 0.000001 -49.702900 7.994172 0.351760 -0.153611 6.508495 3.804079 -44.594394 2.740313 -1.946554 24.983903 0.203807 2.135770 2.377647 0.026300 0.000000 -54.998400
-9.854265 16.759481 1.822539 -46.150698 83.918576 -21.071932 -12.199447 0.539038 -3.590749 0.346586 4.618711 -13.860046 0.079905 2.204945 42.232050 1.547118 9.392668 2.257585 1.360900 -0.000000 -43.678801 7.911998 0.270203 -0.365937 6.829015 3.372344 -43.991548 2.748640 -1.994298 25.632646 0.085807 1.587881 1.434321 -0.091000 0.000000 -55.243501
-9.712872 16.782297 1.856680 -50.495909 84.502515 -25.492073 -12.316287 0.381652 -3.675907 0.401763 4.770686 -14.967948 0.199394 2.309105 44.326299 1.770043 10.997958 2.093258 1.600900 -0.000000 -37.944400 7.853488 0.210182 -0.559602 7.028383 2.927848 -43.343665 2.745516 -2.020986 26.080773 -0.020439 1.092747 0.693949 -0.181700 -0.000001 -55.428200
-9.572527 16.807949 1.892382 -54.575236 85.056535 -29.623559 -12.406559 0.238608 -3.757159 0.302905 4.937810 -16.123389 0.299006 2.406600 46.281259 2.013143 12.732845 1.813235 1.844400 0.000000 -32.856100 7.823157 0.173665 -0.729096 7.109252 2.496952 -42.688564 2.728218 -2.032017 26.376443 -0.112433 0.656202 0.164745 -0.252299 0.000000 -55.552700
-9.432848 16.836114 1.928770 -58.258082 85.570311 -33.328033 -12.464858 0.112789 -3.832960 0.058606 5.111132 -17.316353 0.378877 2.496521 48.068323 2.267398 14.519367 1.449375 2.075499 -0.000000 -28.635800 7.824040 0.160607 -0.871199 7.080059 2.100310 -42.058433 2.695770 -2.033153 26.568046 -0.188847 0.282098 -0.162071 -0.308101 -0.000000 -55.641700
-9.293669 16.866600 1.964688 -61.407759 86.035235 -36.464901 -12.488845 0.004621 -3.903701 -0.314687 5.286966 -18.537708 0.439265 2.578088 49.670389 2.520732 16.266272 1.018463 2.274999 -0.000000 -25.298400 7.855999 0.168212 -0.985004 6.956684 1.753211 -41.475802 2.649232 -2.029645 26.697830 -0.249630 -0.028758 -0.308002 -0.353200 -0.000001 -55.733900
-9.154939 16.899326 1.998985 -63.895009 86.444859 -38.904059 -12.479540 -0.087393 -3.969859 -0.794757 5.463639 -19.781675 0.480798 2.650617 51.078780 2.759590 17.878954 0.529044 2.423100 -0.000000 -22.742000 7.915650 0.191477 -1.071158 6.760603 1.464370 -40.954158 2.591464 -2.025454 26.797112 -0.295701 -0.277977 -0.302510 -0.390199 -0.000000 -55.872800
-9.016741 16.934183 2.030516 -65.606622 86.792670 -40.535721 -12.440525 -0.166006 -4.033121 -1.355823 5.642820 -21.041821 0.504330 2.714108 52.291142 2.970913 19.270671 -0.012830 2.502900 0.000000 -20.821800 7.997374 0.224753 -1.133045 6.516678 1.236442 -40.494708 2.526445 -2.023180 26.886090 -0.328497 -0.468450 -0.178351 -0.420301 0.000000 -56.099700
-8.879192 16.971119 2.058425 -66.477493 87.075426 -41.299701 -12.377178 -0.234141 -4.093913 -1.972635 5.823442 -22.313357 0.510961 2.768826 53.309280 3.143692 20.371202 -0.597777 2.504800 -0.000000 -19.406100 8.094364 0.262467 -1.175414 6.249596 1.064481 -40.090939 2.458743 -2.023790 26.972210 -0.349391 -0.602719 0.033518 -0.443700 0.000000 -56.445700
-8.742362 17.010088 2.081997 -66.583394 87.290114 -41.279157 -12.297606 -0.295979 -4.152562 -2.615584 6.006279 -23.591259 0.501770 2.815725 54.138536 3.269573 21.129768 -1.214679 2.427200 0.000001 -18.376400 8.197528 0.298192 -1.204113 5.986048 0.942163 -39.723681 2.393036 -2.026287 27.047254 -0.360274 -0.688030 0.309266 -0.460899 0.000000 -56.928100
-8.606493 17.050775 2.101085 -66.052111 87.443792 -40.608153 -12.207103 -0.353369 -4.207221 -3.270767 6.180574 -24.874853 0.477720 2.855898 54.790541 3.344877 21.528050 -1.854516 2.277100 0.000000 -17.619500 8.301634 0.329797 -1.226277 5.739796 0.849590 -39.379504 2.332945 -2.029959 27.105055 -0.361550 -0.723321 0.628227 -0.470600 0.000000 -57.548700
-8.471622 17.092938 2.115696 -65.222945 87.545288 -39.633236 -12.113268 -0.409855 -4.255939 -3.918804 6.338100 -26.160246 0.439858 2.890414 55.275386 3.369092 21.569669 -2.505507 2.068600 0.000000 -17.055599 8.399275 0.353390 -1.248578 5.526547 0.770736 -39.034391 2.281599 -2.032520 27.125802 -0.354542 -0.715290 0.980491 -0.473400 0.000000 -58.296000
-8.337523 17.136381 2.126058 -64.569271 87.608116 -38.834357 -12.023431 -0.469304 -4.294873 -4.542179 6.469014 -27.443406 0.389542 2.919450 55.600758 3.345639 21.284718 -3.153274 1.822000 0.000000 -16.631400 8.483421 0.364418 -1.274931 5.358559 0.692706 -38.661936 2.241156 -2.030692 27.080879 -0.341026 -0.675085 1.365578 -0.471000 0.000000 -59.130100
-8.204129 17.180636 2.132740 -64.495856 87.652088 -38.621119 -11.940063 -0.533469 -4.320037 -5.136949 6.556698 -28.721330 0.328143 2.942799 55.776698 3.282291 20.730189 -3.792546 1.556400 0.000000 -16.280800 8.552287 0.362636 -1.309717 5.236360 0.595607 -38.246268 2.212323 -2.022927 26.954684 -0.321858 -0.607624 1.783731 -0.463700 0.000000 -60.009101
-8.071225 17.225230 2.136358 -65.370737 87.694904 -39.364023 -11.863890 -0.603529 -4.327625 -5.700912 6.585893 -29.989231 0.257032 2.959742 55.809618 3.189563 19.978431 -4.421914 1.288600 -0.000000 -15.951400 8.605700 0.348529 -1.355680 5.157559 0.464617 -37.774227 2.194728 -2.007844 26.733920 -0.298389 -0.521028 2.239471 -0.452900 0.000000 -60.886400
-7.938502 17.269719 2.137514 -67.478992 87.750741 -41.350743 -11.793672 -0.678871 -4.313456 -6.237610 6.542315 -31.239973 0.177467 2.968986 55.700487 3.079864 19.111284 -5.041086 1.032000 0.000000 -15.620000 8.645534 0.323834 -1.413826 5.114865 0.287825 -37.238529 2.186842 -1.984620 26.412653 -0.271959 -0.422960 2.737838 -0.439700 -0.000000 -61.717200
-7.805632 17.313596 2.136778 -71.074345 87.825802 -44.835162 -11.727190 -0.757913 -4.274392 -6.752637 6.414949 -32.464624 0.090267 2.969192 55.445944 2.965805 18.208873 -5.654216 0.794500 -0.000000 -15.277600 8.674461 0.291147 -1.484523 5.098994 0.058228 -36.638165 2.186337 -1.953141 25.993767 -0.244063 -0.321478 3.282220 -0.425299 -0.000000 -62.469300
-7.672294 17.356413 2.134515 -76.392181 87.916767 -50.052452 -11.661708 -0.838226 -4.208310 -7.253069 6.197466 -33.652566 -0.004267 2.958928 55.037425 2.858774 17.341248 -6.266251 0.579399 -0.000000 -14.934901 8.695444 0.253421 -1.567148 5.099028 -0.225413 -35.977869 2.190272 -1.913937 25.488261 -0.216313 -0.224647 3.872746 -0.411100 -0.000000 -63.128200
-7.538193 17.397797 2.130857 -83.636962 88.009299 -57.206410 -11.594427 -0.916754 -4.113871 -7.744430 5.888744 -34.790922 -0.106289 2.936587 54.461625 2.767467 16.559991 -6.880733 0.386300 -0.000000 -14.614000 8.711440 0.213232 -1.660421 5.105540 -0.559746 -35.266483 2.195700 -1.868234 24.914286 -0.190298 -0.140013 4.505958 -0.398400 0.000000 -63.699500
-7.403090 17.437401 2.125774 -92.806598 88.077449 -66.293624 -11.521819 -0.990686 -3.992072 -8.229181 5.495162 -35.866460 -0.216161 2.900359 53.702196 2.697258 15.894994 -7.497393 0.213100 -0.000000 -14.343900 8.725632 0.172899 -1.762770 5.112336 -0.934676 -34.515455 2.200252 -1.817928 24.294380 -0.167513 -0.074120 5.173601 -0.388799 0.000000 -64.205000
-7.266797 17.474917 2.118992 -103.450795 88.089325 -76.862409 -11.439978 -1.057871 -3.845274 -8.705267 5.029215 -36.866853 -0.333830 2.847723 52.742238 2.649724 15.352383 -8.110714 0.057500 0.000000 -14.149800 8.741373 0.133801 -1.871892 5.117331 -1.336733 -33.737608 2.202689 -1.765561 23.652986 -0.149219 -0.031985 5.864164 -0.383500 -0.000000 -64.680000
-7.129239 17.510143 2.110130 -114.545566 88.016762 -87.889751 -11.345980 -1.117252 -3.677102 -9.167934 4.509344 -37.779662 -0.458379 2.775338 51.566052 2.622929 14.917896 -8.708726 -0.081800 0.000000 -14.045600 8.761156 0.095611 -1.984616 5.121804 -1.750914 -32.943513 2.202934 -1.714127 23.014715 -0.136246 -0.016212 6.564291 -0.383399 0.000000 -65.167900
-6.990414 17.542854 2.098783 -124.839396 87.846852 -98.124341 -11.239695 -1.169651 -3.492856 -9.611914 3.958729 -38.596746 -0.588560 2.680319 50.162741 2.611870 14.561051 -9.273583 -0.204200 0.000000 -14.034601 8.784812 0.056580 -2.097909 5.129713 -2.162541 -32.143241 2.201818 -1.666428 22.401700 -0.128662 -0.025408 7.259324 -0.388700 -0.000000 -65.710600
-6.850394 17.572862 2.084484 -133.449587 87.583777 -106.684446 -11.124682 -1.216986 -3.298549 -10.033661 3.403383 -39.314136 -0.723612 2.561506 48.528318 2.609313 14.241690 -9.783788 -0.306800 0.000000 -14.108800 8.809279 0.014043 -2.209650 5.145330 -2.559280 -31.344510 2.200156 -1.624615 21.833373 -0.125791 -0.054563 7.935993 -0.398500 0.000001 -66.341400
-6.709283 17.599993 2.066942 -140.117516 87.244085 -113.313061 -11.006671 -1.260620 -3.099649 -10.433393 2.870731 -39.933168 -0.863808 2.419843 46.667154 2.607001 13.917790 -10.217616 -0.385900 -0.000000 -14.249300 8.830425 -0.034631 -2.318559 5.172560 -2.933382 -30.552664 2.198541 -1.589828 21.324178 -0.126168 -0.094641 8.584112 -0.410600 0.000000 -67.082301
-6.567190 17.624120 2.046046 -145.038778 86.848272 -118.209513 -10.890723 -1.300043 -2.900367 -10.817001 2.386570 -40.457598 -1.010210 2.257427 44.591390 2.596972 13.552598 -10.557332 -0.437701 -0.000000 -14.430800 8.845924 -0.091045 -2.424016 5.213489 -3.284539 -29.771122 2.197511 -1.562658 20.884399 -0.127538 -0.131481 9.196779 -0.420901 -0.000000 -67.936400
